<mxfile host="app.diagrams.net" modified="2021-06-07T19:44:58.373Z" agent="5.0 (Macintosh; Intel Mac OS X 10_15_7) AppleWebKit/537.36 (KHTML, like Gecko) Chrome/91.0.4472.77 Safari/537.36" etag="5g5qRX0OkOyLmcmNZ98C" version="14.7.5" type="github">
  <diagram name="Page-1" id="e7e014a7-5840-1c2e-5031-d8a46d1fe8dd">
    <mxGraphModel dx="5041" dy="1754" grid="1" gridSize="10" guides="1" tooltips="1" connect="1" arrows="1" fold="1" page="1" pageScale="1" pageWidth="1169" pageHeight="826" background="none" math="0" shadow="0">
      <root>
        <mxCell id="0" />
        <mxCell id="1" parent="0" />
        <mxCell id="pmTs-3HlRQYa4RR2aUrw-41" value="" style="shape=table;html=1;whiteSpace=wrap;startSize=0;container=1;collapsible=0;childLayout=tableLayout;" parent="1" vertex="1">
          <mxGeometry x="-2330" width="3490" height="1640" as="geometry" />
        </mxCell>
        <mxCell id="pmTs-3HlRQYa4RR2aUrw-42" value="" style="shape=partialRectangle;html=1;whiteSpace=wrap;collapsible=0;dropTarget=0;pointerEvents=0;fillColor=none;top=0;left=0;bottom=0;right=0;points=[[0,0.5],[1,0.5]];portConstraint=eastwest;" parent="pmTs-3HlRQYa4RR2aUrw-41" vertex="1">
          <mxGeometry width="3490" height="85" as="geometry" />
        </mxCell>
        <mxCell id="pmTs-3HlRQYa4RR2aUrw-43" value="" style="shape=partialRectangle;html=1;whiteSpace=wrap;connectable=0;overflow=hidden;fillColor=none;top=0;left=0;bottom=0;right=0;direction=south;" parent="pmTs-3HlRQYa4RR2aUrw-42" vertex="1">
          <mxGeometry width="1605" height="85" as="geometry" />
        </mxCell>
        <mxCell id="pmTs-3HlRQYa4RR2aUrw-44" value="&lt;font style=&quot;font-size: 35px&quot;&gt;&lt;b&gt;Vaccine Booking Cancellation&lt;/b&gt;&lt;/font&gt;" style="shape=partialRectangle;html=1;whiteSpace=wrap;connectable=0;overflow=hidden;fillColor=none;top=0;left=0;bottom=0;right=0;" parent="pmTs-3HlRQYa4RR2aUrw-42" vertex="1">
          <mxGeometry x="1605" width="874" height="85" as="geometry" />
        </mxCell>
        <mxCell id="pmTs-3HlRQYa4RR2aUrw-45" value="" style="shape=partialRectangle;html=1;whiteSpace=wrap;connectable=0;overflow=hidden;fillColor=none;top=0;left=0;bottom=0;right=0;" parent="pmTs-3HlRQYa4RR2aUrw-42" vertex="1">
          <mxGeometry x="2479" width="1011" height="85" as="geometry" />
        </mxCell>
        <mxCell id="pmTs-3HlRQYa4RR2aUrw-46" style="shape=partialRectangle;html=1;whiteSpace=wrap;collapsible=0;dropTarget=0;pointerEvents=0;fillColor=none;top=0;left=0;bottom=0;right=0;points=[[0,0.5],[1,0.5]];portConstraint=eastwest;" parent="pmTs-3HlRQYa4RR2aUrw-41" vertex="1">
          <mxGeometry y="85" width="3490" height="85" as="geometry" />
        </mxCell>
        <mxCell id="pmTs-3HlRQYa4RR2aUrw-47" value="&lt;span style=&quot;font-size: 34px&quot;&gt;Anonymous&lt;/span&gt;" style="shape=partialRectangle;html=1;whiteSpace=wrap;connectable=0;overflow=hidden;fillColor=none;top=0;left=0;bottom=0;right=0;" parent="pmTs-3HlRQYa4RR2aUrw-46" vertex="1">
          <mxGeometry width="1605" height="85" as="geometry" />
        </mxCell>
        <mxCell id="pmTs-3HlRQYa4RR2aUrw-48" value="&lt;font style=&quot;font-size: 34px&quot;&gt;Registered&lt;/font&gt;" style="shape=partialRectangle;html=1;whiteSpace=wrap;connectable=0;overflow=hidden;fillColor=none;top=0;left=0;bottom=0;right=0;" parent="pmTs-3HlRQYa4RR2aUrw-46" vertex="1">
          <mxGeometry x="1605" width="874" height="85" as="geometry" />
        </mxCell>
        <mxCell id="pmTs-3HlRQYa4RR2aUrw-49" value="&lt;font style=&quot;font-size: 34px&quot;&gt;Cancellation Done&lt;/font&gt;" style="shape=partialRectangle;html=1;whiteSpace=wrap;connectable=0;overflow=hidden;fillColor=none;top=0;left=0;bottom=0;right=0;" parent="pmTs-3HlRQYa4RR2aUrw-46" vertex="1">
          <mxGeometry x="2479" width="1011" height="85" as="geometry" />
        </mxCell>
        <mxCell id="pmTs-3HlRQYa4RR2aUrw-50" value="" style="shape=partialRectangle;html=1;whiteSpace=wrap;collapsible=0;dropTarget=0;pointerEvents=0;fillColor=none;top=0;left=0;bottom=0;right=0;points=[[0,0.5],[1,0.5]];portConstraint=eastwest;" parent="pmTs-3HlRQYa4RR2aUrw-41" vertex="1">
          <mxGeometry y="170" width="3490" height="1470" as="geometry" />
        </mxCell>
        <mxCell id="pmTs-3HlRQYa4RR2aUrw-51" value="" style="shape=partialRectangle;html=1;whiteSpace=wrap;connectable=0;overflow=hidden;fillColor=none;top=0;left=0;bottom=0;right=0;" parent="pmTs-3HlRQYa4RR2aUrw-50" vertex="1">
          <mxGeometry width="1605" height="1470" as="geometry" />
        </mxCell>
        <mxCell id="pmTs-3HlRQYa4RR2aUrw-52" value="&lt;span style=&quot;color: rgba(0 , 0 , 0 , 0) ; font-family: monospace ; font-size: 0px&quot;&gt;%3CmxGraphModel%3E%3Croot%3E%3CmxCell%20id%3D%220%22%2F%3E%3CmxCell%20id%3D%221%22%20parent%3D%220%22%2F%3E%3CmxCell%20id%3D%222%22%20value%3D%22No%22%20style%3D%22text%3Bhtml%3D1%3BstrokeColor%3Dnone%3BfillColor%3Dnone%3Balign%3Dcenter%3BverticalAlign%3Dmiddle%3BwhiteSpace%3Dwrap%3Brounded%3D0%3B%22%20vertex%3D%221%22%20parent%3D%221%22%3E%3CmxGeometry%20x%3D%22-110%22%20y%3D%22890%22%20width%3D%2240%22%20height%3D%2220%22%20as%3D%22geometry%22%2F%3E%3C%2FmxCell%3E%3C%2Froot%3E%3C%2FmxGraphModel%3E&lt;/span&gt;" style="shape=partialRectangle;html=1;whiteSpace=wrap;connectable=0;overflow=hidden;fillColor=none;top=0;left=0;bottom=0;right=0;" parent="pmTs-3HlRQYa4RR2aUrw-50" vertex="1">
          <mxGeometry x="1605" width="874" height="1470" as="geometry" />
        </mxCell>
        <mxCell id="pmTs-3HlRQYa4RR2aUrw-53" value="" style="shape=partialRectangle;html=1;whiteSpace=wrap;connectable=0;overflow=hidden;fillColor=none;top=0;left=0;bottom=0;right=0;" parent="pmTs-3HlRQYa4RR2aUrw-50" vertex="1">
          <mxGeometry x="2479" width="1011" height="1470" as="geometry" />
        </mxCell>
        <mxCell id="pmTs-3HlRQYa4RR2aUrw-54" value="" style="ellipse;html=1;shape=startState;fillColor=#000000;strokeColor=#ff0000;" parent="1" vertex="1">
          <mxGeometry x="-1590" y="323" width="30" height="30" as="geometry" />
        </mxCell>
        <mxCell id="pmTs-3HlRQYa4RR2aUrw-55" value="" style="edgeStyle=orthogonalEdgeStyle;html=1;verticalAlign=bottom;endArrow=open;endSize=8;strokeColor=#ff0000;" parent="1" source="pmTs-3HlRQYa4RR2aUrw-54" edge="1">
          <mxGeometry relative="1" as="geometry">
            <mxPoint x="-1575" y="413" as="targetPoint" />
          </mxGeometry>
        </mxCell>
        <mxCell id="pmTs-3HlRQYa4RR2aUrw-58" value="" style="edgeStyle=orthogonalEdgeStyle;rounded=0;orthogonalLoop=1;jettySize=auto;html=1;" parent="1" source="pmTs-3HlRQYa4RR2aUrw-56" target="pmTs-3HlRQYa4RR2aUrw-57" edge="1">
          <mxGeometry relative="1" as="geometry" />
        </mxCell>
        <mxCell id="pmTs-3HlRQYa4RR2aUrw-56" value="&lt;span style=&quot;font-size: 22px&quot;&gt;Log In User&lt;/span&gt;" style="rounded=1;whiteSpace=wrap;html=1;fontSize=12;glass=0;strokeWidth=1;shadow=0;" parent="1" vertex="1">
          <mxGeometry x="-1690" y="413" width="230" height="70" as="geometry" />
        </mxCell>
        <mxCell id="pmTs-3HlRQYa4RR2aUrw-62" value="" style="edgeStyle=orthogonalEdgeStyle;rounded=0;orthogonalLoop=1;jettySize=auto;html=1;" parent="1" source="pmTs-3HlRQYa4RR2aUrw-57" target="pmTs-3HlRQYa4RR2aUrw-61" edge="1">
          <mxGeometry relative="1" as="geometry" />
        </mxCell>
        <mxCell id="pmTs-3HlRQYa4RR2aUrw-57" value="&lt;font style=&quot;font-size: 21px&quot;&gt;User enters email and password&lt;/font&gt;" style="rounded=1;whiteSpace=wrap;html=1;fontSize=12;glass=0;strokeWidth=1;shadow=0;" parent="1" vertex="1">
          <mxGeometry x="-1690" y="563" width="230" height="70" as="geometry" />
        </mxCell>
        <mxCell id="pmTs-3HlRQYa4RR2aUrw-73" value="" style="edgeStyle=orthogonalEdgeStyle;rounded=0;orthogonalLoop=1;jettySize=auto;html=1;" parent="1" source="pmTs-3HlRQYa4RR2aUrw-59" target="pmTs-3HlRQYa4RR2aUrw-72" edge="1">
          <mxGeometry relative="1" as="geometry" />
        </mxCell>
        <mxCell id="pmTs-3HlRQYa4RR2aUrw-59" value="&lt;font style=&quot;font-size: 21px&quot;&gt;User views the dashboard, Upcoming Booking Details and Dose Taken&lt;/font&gt;" style="rounded=1;whiteSpace=wrap;html=1;fontSize=12;glass=0;strokeWidth=1;shadow=0;" parent="1" vertex="1">
          <mxGeometry x="-190" y="840" width="230" height="247" as="geometry" />
        </mxCell>
        <mxCell id="pmTs-3HlRQYa4RR2aUrw-64" value="" style="edgeStyle=orthogonalEdgeStyle;rounded=0;orthogonalLoop=1;jettySize=auto;html=1;" parent="1" source="pmTs-3HlRQYa4RR2aUrw-61" target="pmTs-3HlRQYa4RR2aUrw-63" edge="1">
          <mxGeometry relative="1" as="geometry" />
        </mxCell>
        <mxCell id="pmTs-3HlRQYa4RR2aUrw-88" value="" style="edgeStyle=orthogonalEdgeStyle;rounded=0;orthogonalLoop=1;jettySize=auto;html=1;" parent="1" source="pmTs-3HlRQYa4RR2aUrw-61" target="pmTs-3HlRQYa4RR2aUrw-87" edge="1">
          <mxGeometry relative="1" as="geometry" />
        </mxCell>
        <mxCell id="pmTs-3HlRQYa4RR2aUrw-61" value="&lt;font style=&quot;font-size: 21px&quot;&gt;Valid Credentials?&lt;/font&gt;" style="rhombus;whiteSpace=wrap;html=1;rounded=1;shadow=0;strokeWidth=1;glass=0;" parent="1" vertex="1">
          <mxGeometry x="-1796.25" y="780" width="442.5" height="140" as="geometry" />
        </mxCell>
        <mxCell id="pmTs-3HlRQYa4RR2aUrw-66" value="" style="edgeStyle=orthogonalEdgeStyle;rounded=0;orthogonalLoop=1;jettySize=auto;html=1;" parent="1" source="pmTs-3HlRQYa4RR2aUrw-63" target="pmTs-3HlRQYa4RR2aUrw-65" edge="1">
          <mxGeometry relative="1" as="geometry" />
        </mxCell>
        <mxCell id="pmTs-3HlRQYa4RR2aUrw-63" value="&lt;span style=&quot;font-size: 23px&quot;&gt;Home Page&lt;/span&gt;" style="whiteSpace=wrap;html=1;rounded=1;shadow=0;strokeWidth=1;glass=0;" parent="1" vertex="1">
          <mxGeometry x="-1160" y="820" width="290" height="60" as="geometry" />
        </mxCell>
        <mxCell id="pmTs-3HlRQYa4RR2aUrw-68" value="" style="edgeStyle=orthogonalEdgeStyle;rounded=0;orthogonalLoop=1;jettySize=auto;html=1;" parent="1" source="pmTs-3HlRQYa4RR2aUrw-65" target="pmTs-3HlRQYa4RR2aUrw-67" edge="1">
          <mxGeometry relative="1" as="geometry">
            <Array as="points">
              <mxPoint x="-450" y="530" />
            </Array>
          </mxGeometry>
        </mxCell>
        <mxCell id="pmTs-3HlRQYa4RR2aUrw-65" value="&lt;span style=&quot;font-size: 23px&quot;&gt;User clicks on the drop down arrow next to the username on the top right hand corner&lt;/span&gt;" style="whiteSpace=wrap;html=1;rounded=1;shadow=0;strokeWidth=1;glass=0;" parent="1" vertex="1">
          <mxGeometry x="-620" y="780" width="340" height="140" as="geometry" />
        </mxCell>
        <mxCell id="pmTs-3HlRQYa4RR2aUrw-70" value="" style="edgeStyle=orthogonalEdgeStyle;rounded=0;orthogonalLoop=1;jettySize=auto;html=1;" parent="1" source="pmTs-3HlRQYa4RR2aUrw-67" target="pmTs-3HlRQYa4RR2aUrw-69" edge="1">
          <mxGeometry relative="1" as="geometry" />
        </mxCell>
        <mxCell id="pmTs-3HlRQYa4RR2aUrw-67" value="&lt;span style=&quot;font-size: 23px&quot;&gt;Hi Username&lt;/span&gt;" style="whiteSpace=wrap;html=1;rounded=1;shadow=0;strokeWidth=1;glass=0;" parent="1" vertex="1">
          <mxGeometry x="-245" y="440" width="340" height="140" as="geometry" />
        </mxCell>
        <mxCell id="pmTs-3HlRQYa4RR2aUrw-71" value="" style="edgeStyle=orthogonalEdgeStyle;rounded=0;orthogonalLoop=1;jettySize=auto;html=1;" parent="1" source="pmTs-3HlRQYa4RR2aUrw-69" target="pmTs-3HlRQYa4RR2aUrw-59" edge="1">
          <mxGeometry relative="1" as="geometry" />
        </mxCell>
        <mxCell id="pmTs-3HlRQYa4RR2aUrw-69" value="&lt;span style=&quot;font-size: 23px&quot;&gt;My Account Page&lt;/span&gt;" style="whiteSpace=wrap;html=1;rounded=1;shadow=0;strokeWidth=1;glass=0;" parent="1" vertex="1">
          <mxGeometry x="-200" y="660" width="250" height="70" as="geometry" />
        </mxCell>
        <mxCell id="pmTs-3HlRQYa4RR2aUrw-75" value="" style="edgeStyle=orthogonalEdgeStyle;rounded=0;orthogonalLoop=1;jettySize=auto;html=1;" parent="1" source="pmTs-3HlRQYa4RR2aUrw-72" target="pmTs-3HlRQYa4RR2aUrw-74" edge="1">
          <mxGeometry relative="1" as="geometry" />
        </mxCell>
        <mxCell id="pmTs-3HlRQYa4RR2aUrw-72" value="&lt;font style=&quot;font-size: 21px&quot;&gt;User clicks on Cancel Booking&lt;/font&gt;" style="rounded=1;whiteSpace=wrap;html=1;fontSize=12;glass=0;strokeWidth=1;shadow=0;" parent="1" vertex="1">
          <mxGeometry x="-190" y="1167" width="230" height="247" as="geometry" />
        </mxCell>
        <mxCell id="pmTs-3HlRQYa4RR2aUrw-77" value="" style="edgeStyle=orthogonalEdgeStyle;rounded=0;orthogonalLoop=1;jettySize=auto;html=1;" parent="1" source="pmTs-3HlRQYa4RR2aUrw-74" target="pmTs-3HlRQYa4RR2aUrw-76" edge="1">
          <mxGeometry relative="1" as="geometry" />
        </mxCell>
        <mxCell id="pmTs-3HlRQYa4RR2aUrw-74" value="&lt;font style=&quot;font-size: 21px&quot;&gt;The upcoming booking gets updates with a canceled message in the My Account Tab.&lt;/font&gt;" style="rounded=1;whiteSpace=wrap;html=1;fontSize=12;glass=0;strokeWidth=1;shadow=0;" parent="1" vertex="1">
          <mxGeometry x="390" y="920" width="230" height="247" as="geometry" />
        </mxCell>
        <mxCell id="pmTs-3HlRQYa4RR2aUrw-79" value="" style="edgeStyle=orthogonalEdgeStyle;rounded=0;orthogonalLoop=1;jettySize=auto;html=1;" parent="1" source="pmTs-3HlRQYa4RR2aUrw-76" target="pmTs-3HlRQYa4RR2aUrw-78" edge="1">
          <mxGeometry relative="1" as="geometry" />
        </mxCell>
        <mxCell id="pmTs-3HlRQYa4RR2aUrw-76" value="&lt;font style=&quot;font-size: 21px&quot;&gt;Log out once the cancellation is done&lt;/font&gt;" style="rounded=1;whiteSpace=wrap;html=1;fontSize=12;glass=0;strokeWidth=1;shadow=0;" parent="1" vertex="1">
          <mxGeometry x="700" y="920" width="230" height="247" as="geometry" />
        </mxCell>
        <mxCell id="pmTs-3HlRQYa4RR2aUrw-78" value="" style="ellipse;html=1;shape=endState;fillColor=#000000;strokeColor=#ff0000;" parent="1" vertex="1">
          <mxGeometry x="800" y="1250" width="30" height="30" as="geometry" />
        </mxCell>
        <mxCell id="pmTs-3HlRQYa4RR2aUrw-83" value="&lt;font style=&quot;font-size: 21px&quot;&gt;Yes&lt;/font&gt;" style="text;html=1;strokeColor=none;fillColor=none;align=center;verticalAlign=middle;whiteSpace=wrap;rounded=0;" parent="1" vertex="1">
          <mxGeometry x="-1310" y="800" width="90" height="46" as="geometry" />
        </mxCell>
        <mxCell id="pmTs-3HlRQYa4RR2aUrw-87" value="&lt;font style=&quot;font-size: 26px&quot;&gt;Prompt the user to do registration or go and start booking the first dosage from the home page as anonymous user.&lt;/font&gt;" style="whiteSpace=wrap;html=1;rounded=1;shadow=0;strokeWidth=1;glass=0;" parent="1" vertex="1">
          <mxGeometry x="-1900" y="1060" width="650" height="300" as="geometry" />
        </mxCell>
        <mxCell id="pmTs-3HlRQYa4RR2aUrw-89" value="&lt;font style=&quot;font-size: 18px&quot;&gt;No&lt;/font&gt;" style="text;html=1;strokeColor=none;fillColor=none;align=center;verticalAlign=middle;whiteSpace=wrap;rounded=0;" parent="1" vertex="1">
          <mxGeometry x="-1590" y="970" width="80" height="50" as="geometry" />
        </mxCell>
      </root>
    </mxGraphModel>
  </diagram>
</mxfile>
